<svg xmlns="http://www.w3.org/2000/svg" width="32" height="32" viewBox="0 0 32 32" aria-hidden="true" focusable="false">
  <path d="M22 8H11v2c0 .5522847-.4477153 1-1 1-.55228475 0-1-.4477153-1-1V8H4.5c-.27614237 0-.5.22385763-.5.5V13h25V8.5c0-.27614237-.2238576-.5-.5-.5H24v2c0 .5522847-.4477153 1-1 1s-1-.4477153-1-1V8zm2-2h4.5C29.8807119 6 31 7.11928813 31 8.5v20c0 1.3807119-1.1192881 2.5-2.5 2.5h-24C3.11928813 31 2 29.8807119 2 28.5v-20C2 7.11928813 3.11928813 6 4.5 6H9V3c0-.55228475.44771525-1 1-1 .5522847 0 1 .44771525 1 1v3h11V3c0-.55228475.4477153-1 1-1s1 .44771525 1 1v3zm5 9H4v13.5c0 .2761424.22385763.5.5.5h24c.2761424 0 .5-.2238576.5-.5V15z"></path>
</svg>