<svg xmlns="http://www.w3.org/2000/svg" width="32" height="32" viewBox="0 0 32 32" aria-hidden="true" focusable="false">
  <path d="M16.3333333 16.85c-2.8856878 0-5.225-2.3393122-5.225-5.225 0-2.88568782 2.3393122-5.225 5.225-5.225 2.8856879 0 5.225 2.33931218 5.225 5.225 0 2.8856878-2.3393121 5.225-5.225 5.225zm0-1.7c1.9468038 0 3.525-1.5781963 3.525-3.525 0-1.94680374-1.5781962-3.525-3.525-3.525-1.9468037 0-3.525 1.57819626-3.525 3.525 0 1.9468037 1.5781963 3.525 3.525 3.525zm0-13.125c5.3019336 0 9.6 4.2980664 9.6 9.6 0 3.4516763-4.1917749 11.5931703-8.1625 17.5790218-.3195985.481813-.8593244.7714704-1.4375.7714704-.5781755 0-1.1179014-.2896574-1.4374912-.7714572C10.9251083 23.2181703 6.73333333 15.0766763 6.73333333 11.625c0-5.3019336 4.29806637-9.6 9.59999997-9.6zm0 1.7c-4.3630495 0-7.89999997 3.53695048-7.89999997 7.9 0 2.967324 4.12683247 10.9826834 7.87916667 16.6393115.0046319.0069828.012454.0111807.0208333.0111807.0083794 0 .0162015-.0041979.0208421-.0111939C20.1065008 22.6076834 24.2333333 14.592324 24.2333333 11.625c0-4.36304952-3.5369504-7.9-7.9-7.9z"></path>
</svg>