<svg xmlns="http://www.w3.org/2000/svg" width="64" height="64" viewBox="0 0 64 64" aria-hidden="true" focusable="false">
  <path d="M32.5 32.75c-6.224 0-11.25-5.277-11.25-11.762 0-6.486 5.026-11.763 11.25-11.763s11.25 5.277 11.25 11.763c0 6.485-5.026 11.762-11.25 11.762zm0-2c5.097 0 9.25-4.36 9.25-9.762 0-5.403-4.153-9.763-9.25-9.763s-9.25 4.36-9.25 9.763c0 5.402 4.153 9.762 9.25 9.762zM32.5 0C44.374 0 54 9.626 54 21.5c0 7.804-9.783 26.804-18.958 40.636a3.05 3.05 0 0 1-5.084 0C20.783 48.304 11 29.304 11 21.5 11 9.626 20.626 0 32.5 0zm0 2C21.73 2 13 10.73 13 21.5c0 7.234 9.706 26.086 18.625 39.53a1.05 1.05 0 0 0 1.75 0C42.294 47.586 52 28.734 52 21.5 52 10.73 43.27 2 32.5 2z"></path>
</svg>