<svg xmlns="http://www.w3.org/2000/svg" width="32" height="32" viewBox="0 0 32 32" aria-hidden="true" focusable="false">
  <path d="M29.3839081 13.5017891c-1.7671434.2918207-3.0514124 1.7733739-3.0505748 3.4981492.0001064 1.7236456 1.2841581 3.2041474 3.0477087 3.4953793C30.3103438 20.6460085 31 21.439082 31 22.3781818v2.8036364C31 26.7442326 29.7107455 28 28.1333333 28H3.86666669C2.28925454 28 1 26.7442326 1 25.1818182v-2.7997166c.00087166-.9381606.68969259-1.7302003 1.61883912-1.8819162 1.77130711-.2874452 3.06096614-1.7702053 3.06096614-3.4977612 0-1.7275558-1.28965903-3.2103159-3.06084722-3.4977418C1.6896562 13.3539915 1 12.560918 1 11.6218182V8.81818182C1 7.25576739 2.28925454 6 3.86666669 6H28.1333333C29.7107455 6 31 7.25576739 31 8.81818182v2.80121208c0 .9390998-.6896562 1.7321733-1.6160919 1.8823952zM29 22.4591759c-2.6934304-.472671-4.6663969-2.7665818-4.6666667-5.4589022-.0012041-2.6925132 1.9707463-4.9874149 4.6666667-5.46184V8.81818182C29 8.37228807 28.6177842 8 28.1333333 8H3.86666669C3.38221576 8 3 8.37228807 3 8.81818182v2.72250108c2.69955197.46731 4.67980526 2.7641271 4.67980526 5.4617413 0 2.6979298-1.98071656 4.9949687-4.67980526 5.4617511v2.7176429C3 25.6277119 3.38221576 26 3.86666669 26H28.1333333C28.6177842 26 29 25.6277119 29 25.1818182v-2.7226423zM15 15c-.5522847 0-1-.4477153-1-1s.4477153-1 1-1h7c.5522847 0 1 .4477153 1 1s-.4477153 1-1 1h-7zm4.5 8c-1.9329966 0-3.5-1.5670034-3.5-3.5s1.5670034-3.5 3.5-3.5 3.5 1.5670034 3.5 3.5-1.5670034 3.5-3.5 3.5zm0-2c.8284271 0 1.5-.6715729 1.5-1.5s-.6715729-1.5-1.5-1.5-1.5.6715729-1.5 1.5.6715729 1.5 1.5 1.5zM10 12.375v-.0005728C10.0003096 11.6152989 10.6157994 11 11.375 11c.7593915 0 1.375.6156085 1.375 1.375s-.6156085 1.375-1.375 1.375S10 13.1343915 10 12.375zm0 5v-.0005728C10.0003096 16.6152989 10.6157994 16 11.375 16c.7593915 0 1.375.6156085 1.375 1.375s-.6156085 1.375-1.375 1.375S10 18.1343915 10 17.375zm0 5v-.0005728C10.0003096 21.6152989 10.6157994 21 11.375 21c.7593915 0 1.375.6156085 1.375 1.375s-.6156085 1.375-1.375 1.375S10 23.1343915 10 22.375z"></path>
</svg>