<svg xmlns="http://www.w3.org/2000/svg" width="32" height="32" viewBox="0 0 32 32" aria-hidden="true" focusable="false">
  <path d="M15.2928932 16.7071068C15.1119288 16.5261424 15 16.2761424 15 16V7.6c0-.55228475.4477153-1 1-1s1 .44771525 1 1V15h7.4c.5522847 0 1 .4477153 1 1s-.4477153 1-1 1H16c-.2761424 0-.5261424-.1119288-.7071068-.2928932zM16 31C7.71572875 31 1 24.2842712 1 16 1 7.71572875 7.71572875 1 16 1c8.2842712 0 15 6.71572875 15 15 0 8.2842712-6.7157288 15-15 15zm0-2c7.1797017 0 13-5.8202983 13-13 0-7.17970175-5.8202983-13-13-13C8.82029825 3 3 8.82029825 3 16c0 7.1797017 5.82029825 13 13 13z"></path>
</svg>